<svg id="Ebene_1" data-name="Ebene 1" xmlns="http://www.w3.org/2000/svg" viewBox="0 0 56 56"><defs><style>.cls-1,.cls-2,.cls-3{fill:none;}.cls-2,.cls-3{stroke:#000;stroke-linecap:round;stroke-linejoin:round;}.cls-2{stroke-width:3.5px;}.cls-3{stroke-width:2px;}</style></defs><path class="cls-1" d="M0,0H56V56H0Z"/><polyline class="cls-2" points="13.76 50.44 48.76 15.44 41.76 8.44 6.76 43.44 13.76 50.44"/><line class="cls-2" x1="34.76" y1="15.44" x2="41.76" y2="22.44"/><path class="cls-3" d="M20.76,8.44a4.66,4.66,0,0,0,4.66,4.66,4.67,4.67,0,0,0-4.66,4.67,4.67,4.67,0,0,0-4.67-4.67,4.67,4.67,0,0,0,4.67-4.66"/><path class="cls-3" d="M44.09,31.77a4.67,4.67,0,0,0,4.67,4.67,4.67,4.67,0,0,0-4.67,4.66,4.67,4.67,0,0,0-4.67-4.66,4.67,4.67,0,0,0,4.67-4.67"/></svg>