<svg version="1.1" xmlns="http://www.w3.org/2000/svg" xmlns:xlink="http://www.w3.org/1999/xlink" width="153.33653259277344" height="28.890625"><defs></defs><g transform="translate(-79.43101501464844,10.140625)"><rect fill="rgb(255,255,255)" stroke="none" x="0" y="0" width="153.33653259277344" height="28.890625" fill-opacity="0" transform="translate(79.43101501464844,-10.140625)"></rect><g transform="translate(77.13515727898515,15) rotate(0,0,0) translate(-77.13515727898515,-15) matrix(1,0,-0.10510423526567646,1,77.13515727898515,15)"><path fill="rgb(255,255,255)" fill-opacity="1" d="M4.22-4.53L4.22-4.53L3.55-4.56L3.31-4.56Q3.17-4.60 3.01-4.72Q2.86-4.85 2.77-4.90Q2.69-4.96 2.69-5.10Q2.69-5.24 2.80-5.60L2.80-5.60Q5.47-11.46 7.96-14.98L7.96-14.98Q8.23-15.36 8.84-15.56Q9.45-15.76 10.02-15.76L10.02-15.76Q10.36-15.76 10.36-15.22L10.36-15.22Q10.36-15.07 10.25-14.82Q10.14-14.57 9.71-13.99Q9.27-13.42 8.67-12.68Q8.06-11.94 7.98-11.83L7.98-11.83Q9.86-13.77 11.37-14.72Q12.88-15.67 13.55-15.67Q14.23-15.67 14.59-15.29Q14.96-14.90 14.96-14.45Q14.96-14.01 14.89-13.71Q14.83-13.42 14.67-13.10Q14.50-12.78 14.39-12.55Q14.27-12.33 14.00-11.96Q13.73-11.60 13.62-11.46Q13.52-11.33 13.20-10.94Q12.88-10.56 12.85-10.52L12.85-10.52Q13.23-10.90 13.92-11.66Q14.60-12.41 15.07-12.91Q15.54-13.42 16.25-14.05Q16.97-14.69 17.58-15.09L17.58-15.09Q19.06-16.02 20.57-16.02L20.57-16.02Q21.09-16.02 21.45-15.69Q21.81-15.36 21.81-14.90Q21.81-14.44 20.70-12.71Q19.59-10.99 18.49-9.24Q17.39-7.50 17.39-7.05L17.39-7.05Q17.39-6.42 17.62-6.30Q17.85-6.19 18.18-6.21Q18.51-6.24 19.10-6.64Q19.70-7.03 20.16-7.46L20.16-7.46Q20.92-8.14 21.56-8.78L21.56-8.78Q21.70-8.91 21.86-8.91L21.86-8.91Q22.12-8.91 22.17-8.51Q22.23-8.11 22.23-7.69Q22.23-7.27 22.15-7.10L22.15-7.10Q21.75-6.34 20.40-5.23Q19.04-4.12 17.80-4.12L17.80-4.12Q17.65-4.12 17.58-4.14L17.58-4.14Q16.17-4.27 15.63-4.91Q15.09-5.54 15.09-6.42Q15.09-7.29 15.69-8.54Q16.28-9.78 16.99-10.79Q17.70-11.81 18.30-12.62Q18.89-13.43 18.89-13.50Q18.89-13.57 18.78-13.57L18.78-13.57Q18.36-13.57 16.90-12.20L16.90-12.20Q14.39-9.86 12.58-7.69L12.58-7.69Q12.10-7.12 10.31-4.78L10.31-4.78Q10.10-4.50 9.66-4.50Q9.21-4.50 8.73-4.68Q8.26-4.85 8.26-5.12L8.26-5.12Q8.26-5.26 10.43-8.96Q12.60-12.65 12.60-12.99Q12.60-13.32 12.20-13.32Q11.80-13.32 10.54-12.12L10.54-12.12Q7.08-8.81 5.18-5.54L5.18-5.54Q5.06-5.35 4.70-4.94Q4.35-4.53 4.22-4.53ZM31.69-15.00L31.69-15.00Q32.73-15.00 32.73-14.29L32.73-14.29Q32.73-13.91 32.55-13.73Q32.37-13.56 31.79-12.55Q31.21-11.55 30.51-9.98Q29.80-8.42 29.60-7.31L29.60-7.31Q29.56-7.17 29.56-6.92L29.56-6.92Q29.56-6.17 29.97-6.17Q30.38-6.17 30.94-6.56Q31.50-6.95 31.94-7.40Q32.37-7.84 32.79-8.31Q33.21-8.77 33.29-8.84Q33.37-8.91 33.54-8.91L33.54-8.91Q33.80-8.91 33.85-8.51Q33.90-8.11 33.90-7.69Q33.90-7.27 33.82-7.10L33.82-7.10Q33.43-6.32 32.08-5.23Q30.73-4.14 29.63-4.14Q28.53-4.14 28.01-4.81Q27.49-5.48 27.49-6.29Q27.49-7.10 27.77-7.72L27.77-7.72Q26.63-6.24 25.16-5.22Q23.69-4.19 22.76-4.19Q21.83-4.19 21.24-4.75L21.24-4.75Q20.49-5.45 20.49-6.69Q20.49-7.92 21.05-9.17Q21.60-10.42 22.50-11.46Q23.40-12.49 24.48-13.34L24.48-13.34Q26.75-15.11 28.67-15.11L28.67-15.11Q29.41-15.11 29.87-14.87Q30.34-14.62 30.46-14.25L30.46-14.25Q30.79-14.75 31.01-14.88Q31.24-15.00 31.69-15.00ZM29.87-13.49L29.87-13.49Q27.53-13.49 25.03-10.89L25.03-10.89Q24.14-9.96 23.40-8.66Q22.65-7.36 22.65-6.88Q22.65-6.41 22.93-6.41L22.93-6.41Q23.31-6.41 25.06-7.92Q26.81-9.43 27.38-10.14L27.38-10.14Q28.01-10.93 29.87-13.49ZM49.83-25.11Q50.09-25.11 50.24-24.94Q50.39-24.78 50.39-24.61Q50.39-24.44 50.13-23.98Q49.86-23.52 48.90-21.98Q47.95-20.45 47.41-19.57L47.41-19.57Q44.31-14.53 42.55-11.04Q40.78-7.55 40.78-6.83L40.78-6.83L40.78-6.72Q40.78-6.16 41.19-6.16Q41.60-6.16 42.18-6.54Q42.76-6.92 43.20-7.36Q43.64-7.80 44.08-8.27Q44.53-8.74 44.62-8.83Q44.72-8.91 44.87-8.91L44.87-8.91Q45.10-8.91 45.17-8.61Q45.24-8.32 45.24-7.79Q45.24-7.27 45.16-7.10L45.16-7.10Q44.76-6.34 43.41-5.24Q42.07-4.14 40.86-4.14L40.86-4.14Q38.81-4.14 38.81-5.87L38.81-5.87Q38.81-6.95 39.63-8.70L39.63-8.70Q38.53-7.27 37.38-6.25L37.38-6.25Q35.24-4.40 33.67-4.40L33.67-4.40Q32.80-4.40 32.38-5.01Q31.96-5.63 31.96-6.78Q31.96-7.94 32.87-9.55Q33.77-11.16 35.11-12.46Q36.46-13.75 38.10-14.62Q39.74-15.48 41.12-15.48L41.12-15.48Q41.56-15.48 42.15-14.95L42.15-14.95Q42.55-15.58 43.61-17.47L43.61-17.47Q46.96-23.11 48.04-24.36L48.04-24.36Q48.62-25.11 49.83-25.11L49.83-25.11ZM41.31-13.67L41.31-13.67Q39.35-13.23 37.65-11.83Q35.96-10.44 35.11-8.91Q34.26-7.39 34.26-6.94Q34.26-6.49 34.45-6.49L34.45-6.49Q35.27-6.49 38.51-10.15L38.51-10.15Q40.13-11.96 41.31-13.67ZM53.59-14.84L53.59-14.84Q53.59-13.94 52.86-13.25Q52.13-12.57 51.20-12.57L51.20-12.57Q50.90-12.57 50.80-12.71Q50.71-12.86 50.71-13.09Q50.71-13.32 50.76-13.54L50.76-13.54Q50.27-13.38 49.67-13.04Q49.07-12.69 48.19-12.02Q47.32-11.35 47.32-11.03L47.32-11.03Q47.32-10.92 47.64-10.92Q47.96-10.92 48.63-11.14Q49.30-11.37 49.57-11.37Q49.83-11.37 49.91-11.34L49.91-11.34Q50.09-11.25 50.30-10.92Q50.50-10.60 50.50-10.42Q50.50-10.23 50.15-9.93Q49.79-9.63 49.34-9.47Q48.89-9.32 48.74-9.24L48.74-9.24Q45.85-7.62 45.85-7.02L45.85-7.02Q45.85-5.95 47.67-5.95L47.67-5.95Q48.83-5.95 50.01-6.69L50.01-6.69Q51.01-7.32 51.81-7.97Q52.61-8.62 52.82-8.77Q53.03-8.92 53.14-8.92L53.14-8.92Q53.50-8.92 53.50-8.13Q53.50-7.33 53.40-7.08Q53.31-6.83 52.85-6.46L52.85-6.46Q49.93-4.08 47.32-4.08L47.32-4.08Q45.92-4.08 45.09-4.46L45.09-4.46Q43.56-5.16 43.56-6.60L43.56-6.60Q43.56-8.48 46.17-9.45L46.17-9.45Q45.65-9.69 45.50-10.05Q45.35-10.41 45.35-11.21Q45.35-12.01 46.09-12.91Q46.84-13.80 47.92-14.38L47.92-14.38Q50.32-15.67 52.21-15.67L52.21-15.67Q52.66-15.67 53.13-15.46Q53.59-15.24 53.59-14.84ZM70.14-24.12L70.14-24.12Q67.25-19.79 64.52-15.06L64.52-15.06Q65.14-15.39 65.93-15.53Q66.72-15.67 67.04-15.67Q67.36-15.67 67.59-15.65Q67.82-15.63 68.19-15.50Q68.55-15.37 68.81-15.14L68.81-15.14Q69.44-14.58 69.44-13.56Q69.44-12.53 68.88-11.31Q68.33-10.08 67.38-8.85Q66.43-7.62 65.30-6.56Q64.17-5.50 62.88-4.83Q61.58-4.16 60.46-4.16L60.46-4.16Q59.94-4.16 59.26-4.83Q58.58-5.50 58.58-6.60Q58.58-7.69 59.53-9.99Q60.47-12.28 61.82-14.66Q63.16-17.03 64.56-19.28Q65.97-21.54 66.95-22.98Q67.93-24.41 68.15-24.63Q68.37-24.85 68.95-25.00Q69.53-25.15 69.96-25.14Q70.38-25.14 70.38-24.75L70.38-24.75Q70.38-24.51 70.14-24.12ZM66.44-11.00L66.44-11.00Q67.00-11.98 67.00-12.79Q67.00-13.60 66.49-13.60Q65.98-13.60 64.92-13.15Q63.86-12.71 63.71-12.71Q63.56-12.71 63.31-12.95L63.31-12.95Q60.65-8.16 60.65-6.83L60.65-6.83Q60.65-6.21 61.04-6.21L61.04-6.21Q61.99-6.21 63.76-7.79Q65.54-9.37 66.44-11.00ZM73.46-0.08L73.46-0.08Q73.39-0.01 73.04 0.62Q72.69 1.24 72.30 1.87Q71.90 2.51 71.32 3.08Q70.74 3.66 70.35 3.71Q69.96 3.75 69.85 3.75L69.85 3.75Q68.59 3.75 68.59 2.48L68.59 2.48Q68.59 0.99 70.14-1.00L70.14-1.00Q70.72-1.76 71.61-2.63Q72.50-3.49 72.58-3.61Q72.66-3.73 74.63-7.44L74.63-7.44Q73.32-6.01 72.20-5.11Q71.08-4.22 70.04-4.11L70.04-4.11L69.94-4.11Q69.41-4.11 68.89-4.46Q68.37-4.81 68.37-5.68L68.37-5.68Q68.37-6.98 69.07-8.20L69.07-8.20Q69.31-8.62 69.92-9.63Q70.53-10.64 71.05-11.59L71.05-11.59Q71.54-12.34 72.06-13.34Q72.58-14.33 72.86-14.77Q73.13-15.20 73.38-15.20Q73.62-15.20 74.01-14.89Q74.40-14.58 74.40-14.16Q74.40-13.73 72.61-10.48Q70.82-7.23 70.82-6.77L70.82-6.77Q70.82-6.67 70.93-6.67L70.93-6.67Q71.30-6.67 72.56-7.71Q73.83-8.76 75.36-10.40L75.36-10.40Q77.07-12.22 78.04-13.72L78.04-13.72Q78.16-13.91 78.24-14.01Q78.31-14.12 78.43-14.29Q78.54-14.46 78.62-14.55Q78.69-14.65 78.80-14.78Q78.90-14.91 78.98-14.98Q79.06-15.05 79.16-15.11L79.16-15.11Q79.31-15.25 79.49-15.25Q79.68-15.25 80.05-15.17Q80.43-15.09 80.51-14.99Q80.58-14.90 80.66-14.81L80.66-14.81Q80.80-14.66 80.80-14.53Q80.80-14.40 80.69-14.19Q80.58-13.98 79.42-12.02L79.42-12.02Q76.00-6.25 74.72-3.60L74.72-3.60Q76.79-5.35 80.57-8.78L80.57-8.78Q80.72-8.91 80.87-8.91L80.87-8.91Q81.29-8.91 81.29-7.61L81.29-7.61Q81.29-7.23 81.15-7.10L81.15-7.10Q77.07-3.96 73.46-0.08ZM104.30-23.80L104.30-23.80Q104.73-24.74 104.90-24.74L104.90-24.74L104.97-24.74Q105.18-24.74 105.81-24.30Q106.43-23.86 106.43-23.48L106.43-23.48Q106.43-22.95 102.93-15.22Q99.43-7.50 98.92-6.56Q98.41-5.63 98.22-5.31Q98.03-5.00 97.70-4.61L97.70-4.61Q97.11-3.89 96.23-3.89L96.23-3.89Q95.88-3.89 95.61-3.80Q95.33-3.71 95.28-3.71L95.28-3.71Q94.84-3.71 94.84-3.92L94.84-3.92Q94.84-3.96 94.96-4.25Q95.07-4.55 98.08-10.89L98.08-10.89Q94.87-11.01 92.43-11.08L92.43-11.08Q90.10-8.14 88.20-4.93L88.20-4.93Q87.96-4.48 87.76-4.29Q87.55-4.11 87.20-4.11Q86.84-4.11 86.43-4.47Q86.02-4.83 86.02-5.31L86.02-5.31Q86.02-6.68 89.55-11.16L89.55-11.16Q87.89-11.16 87.45-11.08Q87.01-11.00 86.88-11.00L86.88-11.00Q86.51-11.00 86.51-11.62Q86.51-12.24 87.25-12.71Q87.98-13.19 89.21-13.19L89.21-13.19Q89.30-13.19 89.55-13.20L89.55-13.20Q90.40-13.24 91.29-13.27L91.29-13.27Q94.27-16.77 97.52-19.76Q100.77-22.76 103.15-23.96L103.15-23.96Q103.54-24.15 103.76-24.14Q103.99-24.14 104.30-23.80ZM103.34-21.87L103.34-21.87Q98.35-18.08 94.23-13.27L94.23-13.27Q96.64-13.21 99.12-13.06L99.12-13.06Q101.61-18.30 103.34-21.87ZM109.63-6.72L109.63-6.72Q109.63-6.12 110.45-6.12L110.45-6.12Q110.89-6.12 111.55-6.56Q112.22-6.99 112.75-7.51L112.75-7.51Q114.17-8.92 114.36-8.92L114.36-8.92Q114.72-8.92 114.72-7.90Q114.72-6.87 114.08-6.49L114.08-6.49Q112.12-4.72 111.06-4.34L111.06-4.34Q110.45-4.14 109.73-4.15Q109.00-4.16 108.29-4.78Q107.58-5.39 107.58-6.28Q107.58-7.16 108.05-8.28Q108.51-9.40 109.00-10.20Q109.48-11.00 110.19-12.06Q110.90-13.12 110.95-13.38L110.95-13.38L110.92-13.41Q110.47-13.36 108.68-11.63Q106.90-9.89 105.74-8.61Q104.57-7.32 102.96-5.17L102.96-5.17Q102.51-4.59 102.22-4.59Q101.94-4.59 101.45-4.77Q100.97-4.96 100.86-5.04Q100.75-5.12 100.75-5.28Q100.75-5.45 100.84-5.69Q100.94-5.93 101.03-6.08Q101.12-6.24 101.32-6.57Q101.53-6.90 102.13-7.96Q102.74-9.02 104.00-11.12Q105.26-13.23 105.50-13.67L105.50-13.67Q106.02-14.57 106.35-14.98L106.35-14.98Q106.97-15.76 108.43-15.76L108.43-15.76Q108.76-15.76 108.76-15.35L108.76-15.35Q108.76-14.70 107.57-12.93L107.57-12.93L106.99-12.07Q109.36-14.69 110.99-15.39L110.99-15.39Q111.78-15.73 112.42-15.73Q113.05-15.73 113.43-15.39Q113.80-15.05 113.80-14.63Q113.80-14.21 113.52-13.63Q113.23-13.05 112.93-12.59Q112.64-12.13 112.16-11.44Q111.68-10.74 111.64-10.68Q111.60-10.62 111.43-10.35Q111.26-10.08 111.18-9.96Q111.10-9.84 110.90-9.53Q110.71-9.22 110.60-9.02Q110.48-8.81 110.31-8.51Q110.14-8.21 110.04-7.99Q109.93-7.77 109.82-7.51L109.82-7.51Q109.63-7.03 109.63-6.72ZM120.57-6.72L120.57-6.72Q120.57-6.12 121.39-6.12L121.39-6.12Q121.83-6.12 122.49-6.56Q123.15-6.99 123.69-7.51L123.69-7.51Q125.11-8.92 125.30-8.92L125.30-8.92Q125.66-8.92 125.66-7.90Q125.66-6.87 125.01-6.49L125.01-6.49Q123.06-4.72 121.99-4.34L121.99-4.34Q121.39-4.14 120.67-4.15Q119.94-4.16 119.23-4.78Q118.52-5.39 118.52-6.28Q118.52-7.16 118.98-8.28Q119.45-9.40 119.93-10.20Q120.42-11.00 121.13-12.06Q121.84-13.12 121.88-13.38L121.88-13.38L121.86-13.41Q121.40-13.36 119.62-11.63Q117.84-9.89 116.67-8.61Q115.51-7.32 113.90-5.17L113.90-5.17Q113.45-4.59 113.16-4.59Q112.87-4.59 112.39-4.77Q111.90-4.96 111.79-5.04Q111.68-5.12 111.68-5.28Q111.68-5.45 111.78-5.69Q111.88-5.93 111.96-6.08Q112.05-6.24 112.26-6.57Q112.46-6.90 113.07-7.96Q113.68-9.02 114.94-11.12Q116.20-13.23 116.44-13.67L116.44-13.67Q116.96-14.57 117.29-14.98L117.29-14.98Q117.90-15.76 119.37-15.76L119.37-15.76Q119.70-15.76 119.70-15.35L119.70-15.35Q119.70-14.70 118.51-12.93L118.51-12.93L117.93-12.07Q120.30-14.69 121.92-15.39L121.92-15.39Q122.72-15.73 123.35-15.73Q123.99-15.73 124.36-15.39Q124.74-15.05 124.74-14.63Q124.74-14.21 124.45-13.63Q124.17-13.05 123.87-12.59Q123.58-12.13 123.10-11.44Q122.62-10.74 122.58-10.68Q122.54-10.62 122.37-10.35Q122.20-10.08 122.12-9.96Q122.03-9.84 121.84-9.53Q121.65-9.22 121.53-9.02Q121.42-8.81 121.25-8.51Q121.08-8.21 120.97-7.99Q120.87-7.77 120.76-7.51L120.76-7.51Q120.57-7.03 120.57-6.72ZM133.27-19.63L133.27-19.63Q133.27-18.85 132.55-18.06Q131.82-17.27 131.04-17.27Q130.25-17.27 130.25-18.09Q130.25-18.92 130.94-19.66Q131.63-20.41 132.47-20.41L132.47-20.41Q132.83-20.41 133.05-20.20Q133.27-20.00 133.27-19.63ZM131.06-7.69L131.06-7.69Q131.06-7.28 130.98-7.10L130.98-7.10Q130.31-5.74 128.84-4.89Q127.38-4.05 126.30-4.05Q125.22-4.05 124.44-4.78Q123.66-5.50 123.66-6.25Q123.66-7.01 124.41-8.44Q125.16-9.88 125.92-11.09Q126.67-12.31 126.67-12.41Q126.67-12.52 126.39-12.82Q126.11-13.12 126.11-13.26Q126.11-13.41 126.68-14.01Q127.24-14.62 128.06-15.22Q128.87-15.81 129.30-15.81Q129.73-15.81 130.07-15.43Q130.41-15.05 130.41-14.73Q130.41-14.42 127.16-8.81L127.16-8.81Q127.12-8.73 126.93-8.45Q126.75-8.17 126.65-7.98Q126.55-7.80 126.41-7.54L126.41-7.54Q126.14-6.99 126.14-6.62L126.14-6.62Q126.14-6.16 126.76-6.16Q127.39-6.16 128.07-6.59Q128.75-7.02 129.24-7.54L129.24-7.54Q130.52-8.92 130.70-8.92L130.70-8.92Q131.06-8.92 131.06-7.69ZM130.26-4.29L130.26-4.29L129.39-4.48Q128.99-4.52 128.73-4.98L128.73-4.98Q128.66-5.11 128.64-5.13Q128.62-5.16 128.62-5.20Q128.62-5.24 128.65-5.32Q128.68-5.39 128.73-5.52Q128.79-5.65 128.83-5.79L128.83-5.79Q129.12-6.76 133.63-14.92Q138.14-23.08 138.35-23.34Q138.56-23.59 138.67-23.71Q138.77-23.82 138.90-23.91Q139.03-23.99 139.09-24.01Q139.15-24.04 139.34-24.10Q139.52-24.17 139.72-24.23Q139.92-24.30 140.14-24.42Q140.35-24.53 140.44-24.58Q140.52-24.63 140.65-24.63Q140.78-24.63 140.89-24.51Q141.01-24.38 141.01-24.19L141.01-24.19L141.01-24.10Q140.94-23.84 137.45-17.62Q133.96-11.40 133.64-10.81L133.64-10.81Q134.71-11.23 136.79-12.90Q138.86-14.57 138.88-15.11Q138.90-15.66 139.26-15.91Q139.62-16.15 140.03-16.15Q140.45-16.15 140.74-15.87Q141.04-15.59 141.02-14.96Q141.01-14.32 140.31-13.34Q139.62-12.37 138.64-11.53L138.64-11.53Q136.55-9.75 135.16-9.18L135.16-9.18Q136.27-6.19 137.70-6.19L137.70-6.19Q138.48-6.30 139.62-7.46L139.62-7.46Q140.04-7.88 140.44-8.31Q140.83-8.74 140.92-8.83Q141.01-8.91 141.17-8.91L141.17-8.91Q141.43-8.91 141.49-8.51Q141.54-8.11 141.54-7.69Q141.54-7.27 141.46-7.10L141.46-7.10Q141.06-6.34 139.73-5.24Q138.39-4.14 137.18-4.14L137.18-4.14Q136.32-4.14 135.81-4.46Q135.31-4.79 135.02-5.01Q134.73-5.23 134.43-5.61Q134.13-5.98 133.93-6.23Q133.74-6.47 133.48-6.91Q133.23-7.35 133.12-7.53Q133.01-7.72 132.80-8.13Q132.59-8.55 132.56-8.59L132.56-8.59Q132.31-8.09 132.01-7.50Q131.71-6.91 131.47-6.41Q131.22-5.90 131.02-5.48Q130.81-5.07 130.68-4.79Q130.55-4.52 130.54-4.50L130.54-4.50Q130.44-4.29 130.26-4.29ZM150.77-15.00L150.77-15.00Q151.81-15.00 151.81-14.29L151.81-14.29Q151.81-13.91 151.63-13.73Q151.46-13.56 150.87-12.55Q150.29-11.55 149.59-9.98Q148.89-8.42 148.68-7.31L148.68-7.31Q148.64-7.17 148.64-6.92L148.64-6.92Q148.64-6.17 149.05-6.17Q149.46-6.17 150.02-6.56Q150.58-6.95 151.02-7.40Q151.46-7.84 151.87-8.31Q152.29-8.77 152.37-8.84Q152.45-8.91 152.62-8.91L152.62-8.91Q152.88-8.91 152.93-8.51Q152.99-8.11 152.99-7.69Q152.99-7.27 152.90-7.10L152.90-7.10Q152.51-6.32 151.16-5.23Q149.81-4.14 148.71-4.14Q147.61-4.14 147.09-4.81Q146.57-5.48 146.57-6.29Q146.57-7.10 146.85-7.72L146.85-7.72Q145.71-6.24 144.24-5.22Q142.77-4.19 141.84-4.19Q140.91-4.19 140.33-4.75L140.33-4.75Q139.57-5.45 139.57-6.69Q139.57-7.92 140.13-9.17Q140.68-10.42 141.58-11.46Q142.49-12.49 143.57-13.34L143.57-13.34Q145.84-15.11 147.75-15.11L147.75-15.11Q148.49-15.11 148.95-14.87Q149.42-14.62 149.54-14.25L149.54-14.25Q149.87-14.75 150.10-14.88Q150.32-15.00 150.77-15.00ZM148.95-13.49L148.95-13.49Q146.62-13.49 144.11-10.89L144.11-10.89Q143.23-9.96 142.48-8.66Q141.73-7.36 141.73-6.88Q141.73-6.41 142.01-6.41L142.01-6.41Q142.39-6.41 144.14-7.92Q145.89-9.43 146.47-10.14L146.47-10.14Q147.09-10.93 148.95-13.49Z"></path></g></g></svg>