<svg version="1.1" xmlns="http://www.w3.org/2000/svg" xmlns:xlink="http://www.w3.org/1999/xlink" width="208.0911865234375" height="39.21047592163086"><defs></defs><g transform="translate(-108.3723373413086,14.120475769042969)"><rect fill="rgb(255,255,255)" stroke="none" x="0" y="0" width="208.0911865234375" height="39.21047592163086" fill-opacity="0" transform="translate(108.3723373413086,-14.120475769042969)"></rect><g transform="translate(104.96731908031353,20) rotate(0,0,0) translate(-104.96731908031353,-20) matrix(1,0,-0.10510423526567646,1,104.96731908031353,20)"><path fill="rgb(255,255,255)" fill-opacity="1" d="M6.02-6.15L6.02-6.15L5.11-6.19L4.77-6.19Q4.59-6.24 4.37-6.41Q4.16-6.58 4.05-6.65Q3.94-6.73 3.94-6.92Q3.94-7.12 4.09-7.60L4.09-7.60Q7.70-15.56 11.08-20.33L11.08-20.33Q11.45-20.85 12.28-21.12Q13.10-21.38 13.88-21.38L13.88-21.38Q14.35-21.38 14.35-20.66L14.35-20.66Q14.35-20.46 14.20-20.11Q14.05-19.77 13.46-18.99Q12.86-18.21 12.05-17.21Q11.23-16.21 11.12-16.06L11.12-16.06Q13.66-18.69 15.71-19.98Q17.76-21.27 18.68-21.27Q19.60-21.27 20.09-20.74Q20.58-20.22 20.58-19.61Q20.58-19.01 20.50-18.61Q20.41-18.21 20.19-17.78Q19.97-17.34 19.81-17.03Q19.65-16.73 19.28-16.24Q18.91-15.74 18.77-15.56Q18.63-15.37 18.20-14.85Q17.76-14.33 17.72-14.28L17.72-14.28Q18.24-14.80 19.17-15.82Q20.10-16.84 20.74-17.52Q21.38-18.21 22.34-19.07Q23.31-19.94 24.14-20.48L24.14-20.48Q26.15-21.74 28.21-21.74L28.21-21.74Q28.91-21.74 29.39-21.29Q29.88-20.85 29.88-20.22Q29.88-19.60 28.37-17.26Q26.87-14.91 25.38-12.54Q23.88-10.18 23.88-9.56L23.88-9.56Q23.88-8.71 24.20-8.55Q24.51-8.40 24.96-8.43Q25.40-8.47 26.21-9.01Q27.02-9.55 27.65-10.12L27.65-10.12Q28.67-11.05 29.54-11.92L29.54-11.92Q29.73-12.09 29.95-12.09L29.95-12.09Q30.30-12.09 30.38-11.55Q30.45-11.01 30.45-10.44Q30.45-9.86 30.34-9.64L30.34-9.64Q29.80-8.60 27.97-7.10Q26.13-5.59 24.44-5.59L24.44-5.59Q24.24-5.59 24.14-5.61L24.14-5.61Q22.23-5.80 21.50-6.66Q20.77-7.52 20.77-8.71Q20.77-9.90 21.57-11.59Q22.38-13.28 23.35-14.65Q24.31-16.02 25.12-17.13Q25.92-18.23 25.92-18.32Q25.92-18.42 25.78-18.42L25.78-18.42Q25.20-18.42 23.22-16.56L23.22-16.56Q19.82-13.39 17.35-10.44L17.35-10.44Q16.70-9.66 14.27-6.48L14.27-6.48Q13.99-6.11 13.39-6.11Q12.79-6.11 12.14-6.35Q11.49-6.58 11.49-6.95L11.49-6.95Q11.49-7.13 14.44-12.15Q17.39-17.17 17.39-17.63Q17.39-18.08 16.84-18.08Q16.29-18.08 14.59-16.45L14.59-16.45Q9.89-11.96 7.31-7.52L7.31-7.52Q7.15-7.26 6.66-6.71Q6.18-6.15 6.02-6.15ZM43.29-20.36L43.29-20.36Q44.70-20.36 44.70-19.40L44.70-19.40Q44.70-18.88 44.46-18.64Q44.22-18.40 43.43-17.03Q42.64-15.67 41.69-13.54Q40.73-11.42 40.45-9.92L40.45-9.92Q40.40-9.73 40.40-9.40L40.40-9.40Q40.40-8.38 40.95-8.38Q41.51-8.38 42.27-8.91Q43.03-9.44 43.63-10.04Q44.22-10.64 44.79-11.27Q45.35-11.90 45.46-12.00Q45.57-12.09 45.80-12.09L45.80-12.09Q46.15-12.09 46.22-11.55Q46.30-11.01 46.30-10.44Q46.30-9.86 46.19-9.64L46.19-9.64Q45.65-8.58 43.82-7.10Q41.99-5.61 40.50-5.61Q39.01-5.61 38.30-6.52Q37.60-7.43 37.60-8.54Q37.60-9.64 37.97-10.47L37.97-10.47Q36.43-8.47 34.43-7.08Q32.44-5.69 31.18-5.69Q29.91-5.69 29.12-6.45L29.12-6.45Q28.10-7.39 28.10-9.07Q28.10-10.75 28.85-12.45Q29.60-14.15 30.82-15.55Q32.05-16.95 33.51-18.10L33.51-18.10Q36.59-20.51 39.19-20.51L39.19-20.51Q40.19-20.51 40.82-20.18Q41.45-19.84 41.62-19.34L41.62-19.34Q42.07-20.01 42.37-20.19Q42.68-20.36 43.29-20.36ZM40.82-18.30L40.82-18.30Q37.65-18.30 34.26-14.78L34.26-14.78Q33.05-13.52 32.04-11.75Q31.03-9.99 31.03-9.34Q31.03-8.69 31.40-8.69L31.40-8.69Q31.92-8.69 34.29-10.74Q36.67-12.79 37.45-13.76L37.45-13.76Q38.30-14.83 40.82-18.30ZM67.91-34.08Q68.27-34.08 68.47-33.85Q68.67-33.63 68.67-33.40Q68.67-33.17 68.31-32.54Q67.95-31.92 66.65-29.84Q65.35-27.75 64.63-26.56L64.63-26.56Q60.42-19.71 58.02-14.98Q55.63-10.25 55.63-9.27L55.63-9.27L55.63-9.12Q55.63-8.36 56.19-8.36Q56.74-8.36 57.53-8.88Q58.32-9.40 58.91-9.99Q59.51-10.59 60.11-11.23Q60.71-11.87 60.84-11.98Q60.97-12.09 61.18-12.09L61.18-12.09Q61.49-12.09 61.59-11.69Q61.68-11.29 61.68-10.58Q61.68-9.86 61.57-9.64L61.57-9.64Q61.03-8.60 59.20-7.11Q57.37-5.61 55.74-5.61L55.74-5.61Q52.96-5.61 52.96-7.97L52.96-7.97Q52.96-9.44 54.07-11.81L54.07-11.81Q52.57-9.86 51.01-8.49L51.01-8.49Q48.12-5.97 45.98-5.97L45.98-5.97Q44.79-5.97 44.23-6.80Q43.66-7.64 43.66-9.20Q43.66-10.77 44.89-12.96Q46.11-15.15 47.94-16.90Q49.77-18.66 51.99-19.83Q54.22-21.01 56.09-21.01L56.09-21.01Q56.69-21.01 57.49-20.29L57.49-20.29Q58.02-21.14 59.47-23.70L59.47-23.70Q64.02-31.37 65.48-33.06L65.48-33.06Q66.26-34.08 67.91-34.08L67.91-34.08ZM56.35-18.55L56.35-18.55Q53.68-17.95 51.38-16.06Q49.08-14.17 47.93-12.10Q46.78-10.03 46.78-9.42Q46.78-8.80 47.04-8.80L47.04-8.80Q48.15-8.80 52.55-13.78L52.55-13.78Q54.74-16.23 56.35-18.55ZM73.02-20.14L73.02-20.14Q73.02-18.92 72.02-17.99Q71.03-17.06 69.77-17.06L69.77-17.06Q69.36-17.06 69.23-17.26Q69.10-17.45 69.10-17.77Q69.10-18.08 69.18-18.38L69.18-18.38Q68.51-18.16 67.69-17.69Q66.87-17.23 65.69-16.32Q64.50-15.41 64.50-14.96L64.50-14.96Q64.50-14.82 64.94-14.82Q65.37-14.82 66.28-15.12Q67.19-15.43 67.55-15.43Q67.91-15.43 68.02-15.39L68.02-15.39Q68.27-15.26 68.54-14.83Q68.82-14.39 68.82-14.14Q68.82-13.89 68.34-13.48Q67.86-13.07 67.25-12.86Q66.63-12.65 66.43-12.53L66.43-12.53Q62.51-10.34 62.51-9.53L62.51-9.53Q62.51-8.08 64.98-8.08L64.98-8.08Q66.56-8.08 68.15-9.08L68.15-9.08Q69.51-9.94 70.59-10.82Q71.68-11.70 71.97-11.90Q72.26-12.11 72.40-12.11L72.40-12.11Q72.89-12.11 72.89-11.03Q72.89-9.95 72.76-9.61Q72.63-9.27 72.01-8.77L72.01-8.77Q68.04-5.54 64.50-5.54L64.50-5.54Q62.61-5.54 61.48-6.06L61.48-6.06Q59.40-7.00 59.40-8.95L59.40-8.95Q59.40-11.51 62.94-12.83L62.94-12.83Q62.24-13.15 62.03-13.64Q61.83-14.13 61.83-15.21Q61.83-16.30 62.84-17.52Q63.85-18.73 65.32-19.51L65.32-19.51Q68.58-21.27 71.14-21.27L71.14-21.27Q71.75-21.27 72.39-20.98Q73.02-20.68 73.02-20.14ZM95.47-32.74L95.47-32.74Q91.55-26.86 87.84-20.44L87.84-20.44Q88.69-20.88 89.76-21.08Q90.83-21.27 91.26-21.27Q91.70-21.27 92.02-21.25Q92.33-21.22 92.82-21.04Q93.31-20.86 93.67-20.55L93.67-20.55Q94.52-19.79 94.52-18.40Q94.52-17.01 93.77-15.34Q93.02-13.68 91.73-12.01Q90.44-10.34 88.91-8.91Q87.38-7.47 85.61-6.56Q83.85-5.65 82.33-5.65L82.33-5.65Q81.63-5.65 80.71-6.56Q79.79-7.47 79.79-8.95Q79.79-10.44 81.07-13.55Q82.35-16.67 84.18-19.89Q86.00-23.11 87.91-26.17Q89.81-29.23 91.14-31.18Q92.48-33.13 92.78-33.43Q93.07-33.72 93.86-33.93Q94.65-34.13 95.23-34.12Q95.80-34.11 95.80-33.59L95.80-33.59Q95.80-33.26 95.47-32.74ZM90.46-14.93L90.46-14.93Q91.22-16.26 91.22-17.36Q91.22-18.45 90.52-18.45Q89.83-18.45 88.39-17.85Q86.95-17.25 86.75-17.25Q86.54-17.25 86.21-17.58L86.21-17.58Q82.59-11.07 82.59-9.27L82.59-9.27Q82.59-8.43 83.13-8.43L83.13-8.43Q84.41-8.43 86.82-10.58Q89.23-12.72 90.46-14.93ZM99.98-0.10L99.98-0.10Q99.88-0.01 99.41 0.83Q98.94 1.68 98.40 2.54Q97.86 3.40 97.07 4.18Q96.28 4.96 95.75 5.03Q95.23 5.09 95.08 5.09L95.08 5.09Q93.37 5.09 93.37 3.37L93.37 3.37Q93.37 1.35 95.47-1.36L95.47-1.36Q96.27-2.38 97.47-3.56Q98.68-4.74 98.79-4.90Q98.90-5.06 101.57-10.10L101.57-10.10Q99.79-8.15 98.27-6.94Q96.75-5.72 95.34-5.58L95.34-5.58L95.21-5.58Q94.48-5.58 93.78-6.05Q93.07-6.52 93.07-7.71L93.07-7.71Q93.07-9.47 94.02-11.12L94.02-11.12Q94.35-11.70 95.18-13.07Q96.01-14.44 96.71-15.73L96.71-15.73Q97.38-16.75 98.08-18.10Q98.79-19.45 99.16-20.04Q99.53-20.62 99.86-20.62Q100.20-20.62 100.73-20.21Q101.26-19.79 101.26-19.21Q101.26-18.64 98.83-14.22Q96.40-9.81 96.40-9.19L96.40-9.19Q96.40-9.05 96.54-9.05L96.54-9.05Q97.04-9.05 98.76-10.46Q100.48-11.88 102.56-14.11L102.56-14.11Q104.87-16.58 106.19-18.62L106.19-18.62Q106.36-18.88 106.46-19.02Q106.56-19.16 106.72-19.39Q106.88-19.62 106.98-19.75Q107.08-19.88 107.22-20.06Q107.36-20.23 107.47-20.33Q107.58-20.42 107.71-20.51L107.71-20.51Q107.92-20.70 108.17-20.70Q108.42-20.70 108.93-20.59Q109.44-20.48 109.54-20.35Q109.64-20.22 109.75-20.10L109.75-20.10Q109.94-19.90 109.94-19.72Q109.94-19.55 109.79-19.26Q109.64-18.97 108.07-16.32L108.07-16.32Q103.43-8.49 101.68-4.89L101.68-4.89Q104.50-7.26 109.62-11.92L109.62-11.92Q109.83-12.09 110.03-12.09L110.03-12.09Q110.61-12.09 110.61-10.33L110.61-10.33Q110.61-9.81 110.42-9.64L110.42-9.64Q104.87-5.37 99.98-0.10ZM141.84-32.29L141.84-32.29Q142.41-33.57 142.65-33.57L142.65-33.57L142.74-33.57Q143.02-33.57 143.88-32.98Q144.73-32.39 144.73-31.87L144.73-31.87Q144.73-31.14 139.98-20.66Q135.23-10.18 134.53-8.91Q133.84-7.64 133.58-7.21Q133.32-6.78 132.87-6.26L132.87-6.26Q132.08-5.28 130.89-5.28L130.89-5.28Q130.41-5.28 130.03-5.16Q129.66-5.04 129.59-5.04L129.59-5.04Q129.00-5.04 129.00-5.32L129.00-5.32Q129.00-5.37 129.15-5.77Q129.31-6.17 133.39-14.78L133.39-14.78Q129.03-14.95 125.73-15.04L125.73-15.04Q122.56-11.05 119.98-6.69L119.98-6.69Q119.66-6.08 119.38-5.83Q119.11-5.58 118.62-5.58Q118.14-5.58 117.58-6.07Q117.03-6.56 117.03-7.21L117.03-7.21Q117.03-9.06 121.81-15.15L121.81-15.15Q119.57-15.15 118.97-15.04Q118.36-14.93 118.20-14.93L118.20-14.93Q117.70-14.93 117.70-15.77Q117.70-16.62 118.69-17.26Q119.68-17.90 121.35-17.90L121.35-17.90Q121.48-17.90 121.81-17.91L121.81-17.91Q122.97-17.97 124.17-18.01L124.17-18.01Q128.22-22.76 132.63-26.82Q137.05-30.88 140.28-32.52L140.28-32.52Q140.80-32.78 141.10-32.77Q141.41-32.76 141.84-32.29ZM140.54-29.68L140.54-29.68Q133.76-24.54 128.16-18.01L128.16-18.01Q131.44-17.93 134.80-17.73L134.80-17.73Q138.18-24.84 140.54-29.68ZM149.07-9.12L149.07-9.12Q149.07-8.30 150.19-8.30L150.19-8.30Q150.78-8.30 151.68-8.90Q152.58-9.49 153.30-10.20L153.30-10.20Q155.23-12.11 155.49-12.11L155.49-12.11Q155.97-12.11 155.97-10.72Q155.97-9.32 155.10-8.80L155.10-8.80Q152.45-6.41 151.00-5.89L151.00-5.89Q150.19-5.61 149.20-5.63Q148.22-5.65 147.25-6.48Q146.29-7.32 146.29-8.52Q146.29-9.71 146.92-11.23Q147.55-12.76 148.21-13.84Q148.87-14.93 149.83-16.37Q150.80-17.80 150.85-18.16L150.85-18.16L150.82-18.19Q150.20-18.14 147.78-15.78Q145.36-13.42 143.78-11.68Q142.21-9.94 140.02-7.02L140.02-7.02Q139.40-6.23 139.02-6.23Q138.63-6.23 137.97-6.48Q137.31-6.73 137.16-6.84Q137.01-6.95 137.01-7.17Q137.01-7.39 137.14-7.72Q137.27-8.04 137.39-8.26Q137.51-8.47 137.79-8.92Q138.07-9.36 138.89-10.80Q139.72-12.24 141.43-15.09Q143.13-17.95 143.47-18.55L143.47-18.55Q144.17-19.77 144.62-20.33L144.62-20.33Q145.45-21.38 147.44-21.38L147.44-21.38Q147.88-21.38 147.88-20.83L147.88-20.83Q147.88-19.96 146.27-17.54L146.27-17.54L145.49-16.37Q148.70-19.94 150.91-20.88L150.91-20.88Q151.98-21.35 152.85-21.35Q153.71-21.35 154.22-20.88Q154.73-20.42 154.73-19.85Q154.73-19.29 154.34-18.50Q153.95-17.71 153.55-17.09Q153.15-16.47 152.50-15.52Q151.86-14.57 151.80-14.49Q151.74-14.41 151.51-14.05Q151.28-13.68 151.17-13.52Q151.06-13.35 150.80-12.93Q150.54-12.52 150.38-12.24Q150.22-11.96 149.99-11.55Q149.76-11.14 149.62-10.85Q149.48-10.55 149.33-10.20L149.33-10.20Q149.07-9.55 149.07-9.12ZM163.92-9.12L163.92-9.12Q163.92-8.30 165.03-8.30L165.03-8.30Q165.62-8.30 166.52-8.90Q167.42-9.49 168.15-10.20L168.15-10.20Q170.08-12.11 170.34-12.11L170.34-12.11Q170.82-12.11 170.82-10.72Q170.82-9.32 169.95-8.80L169.95-8.80Q167.29-6.41 165.85-5.89L165.85-5.89Q165.03-5.61 164.05-5.63Q163.06-5.65 162.10-6.48Q161.13-7.32 161.13-8.52Q161.13-9.71 161.76-11.23Q162.39-12.76 163.05-13.84Q163.71-14.93 164.68-16.37Q165.64-17.80 165.70-18.16L165.70-18.16L165.66-18.19Q165.05-18.14 162.63-15.78Q160.20-13.42 158.63-11.68Q157.05-9.94 154.86-7.02L154.86-7.02Q154.25-6.23 153.86-6.23Q153.47-6.23 152.81-6.48Q152.15-6.73 152.00-6.84Q151.86-6.95 151.86-7.17Q151.86-7.39 151.98-7.72Q152.11-8.04 152.24-8.26Q152.36-8.47 152.63-8.92Q152.91-9.36 153.74-10.80Q154.56-12.24 156.27-15.09Q157.98-17.95 158.31-18.55L158.31-18.55Q159.02-19.77 159.46-20.33L159.46-20.33Q160.30-21.38 162.28-21.38L162.28-21.38Q162.73-21.38 162.73-20.83L162.73-20.83Q162.73-19.96 161.11-17.54L161.11-17.54L160.33-16.37Q163.54-19.94 165.75-20.88L165.75-20.88Q166.83-21.35 167.69-21.35Q168.55-21.35 169.06-20.88Q169.57-20.42 169.57-19.85Q169.57-19.29 169.19-18.50Q168.80-17.71 168.40-17.09Q168.00-16.47 167.35-15.52Q166.70-14.57 166.64-14.49Q166.59-14.41 166.36-14.05Q166.12-13.68 166.01-13.52Q165.90-13.35 165.64-12.93Q165.38-12.52 165.22-12.24Q165.07-11.96 164.83-11.55Q164.60-11.14 164.46-10.85Q164.32-10.55 164.18-10.20L164.18-10.20Q163.92-9.55 163.92-9.12ZM181.15-26.64L181.15-26.64Q181.15-25.58 180.17-24.51Q179.19-23.44 178.12-23.44Q177.05-23.44 177.05-24.56Q177.05-25.67 177.99-26.68Q178.93-27.69 180.06-27.69L180.06-27.69Q180.56-27.69 180.86-27.41Q181.15-27.14 181.15-26.64ZM178.15-10.44L178.15-10.44Q178.15-9.88 178.04-9.64L178.04-9.64Q177.13-7.78 175.14-6.64Q173.16-5.50 171.69-5.50Q170.22-5.50 169.17-6.48Q168.11-7.47 168.11-8.49Q168.11-9.51 169.13-11.46Q170.15-13.41 171.17-15.06Q172.19-16.71 172.19-16.85Q172.19-16.99 171.81-17.40Q171.43-17.80 171.43-18.00Q171.43-18.19 172.20-19.02Q172.97-19.84 174.07-20.65Q175.18-21.46 175.76-21.46Q176.35-21.46 176.81-20.94Q177.27-20.42 177.27-19.99Q177.27-19.57 172.86-11.96L172.86-11.96Q172.80-11.85 172.55-11.47Q172.30-11.09 172.16-10.84Q172.02-10.59 171.84-10.23L171.84-10.23Q171.47-9.49 171.47-8.99L171.47-8.99Q171.47-8.36 172.32-8.36Q173.17-8.36 174.09-8.94Q175.01-9.53 175.68-10.23L175.68-10.23Q177.42-12.11 177.66-12.11L177.66-12.11Q178.15-12.11 178.15-10.44ZM177.07-5.82L177.07-5.82L175.88-6.08Q175.35-6.13 174.99-6.76L174.99-6.76Q174.90-6.93 174.87-6.97Q174.84-7.00 174.84-7.06Q174.84-7.12 174.88-7.22Q174.92-7.32 174.99-7.50Q175.07-7.67 175.12-7.86L175.12-7.86Q175.51-9.18 181.64-20.25Q187.76-31.33 188.05-31.67Q188.33-32.02 188.47-32.17Q188.61-32.33 188.79-32.44Q188.96-32.55 189.05-32.59Q189.13-32.63 189.38-32.71Q189.63-32.80 189.90-32.89Q190.17-32.98 190.47-33.14Q190.76-33.30 190.88-33.36Q190.99-33.43 191.16-33.43Q191.34-33.43 191.50-33.26Q191.65-33.09 191.65-32.83L191.65-32.83L191.65-32.70Q191.56-32.35 186.82-23.91Q182.08-15.47 181.65-14.67L181.65-14.67Q183.10-15.24 185.92-17.51Q188.74-19.77 188.77-20.51Q188.80-21.25 189.28-21.59Q189.76-21.92 190.33-21.92Q190.89-21.92 191.29-21.54Q191.69-21.16 191.67-20.30Q191.65-19.44 190.71-18.11Q189.76-16.78 188.44-15.65L188.44-15.65Q185.61-13.24 183.71-12.46L183.71-12.46Q185.22-8.40 187.16-8.40L187.16-8.40Q188.22-8.54 189.76-10.12L189.76-10.12Q190.34-10.70 190.88-11.28Q191.41-11.87 191.53-11.98Q191.65-12.09 191.88-12.09L191.88-12.09Q192.23-12.09 192.30-11.55Q192.38-11.01 192.38-10.44Q192.38-9.86 192.27-9.64L192.27-9.64Q191.73-8.60 189.91-7.11Q188.09-5.61 186.46-5.61L186.46-5.61Q185.29-5.61 184.60-6.06Q183.92-6.50 183.53-6.80Q183.14-7.10 182.73-7.61Q182.32-8.12 182.05-8.45Q181.78-8.79 181.44-9.38Q181.10-9.97 180.95-10.22Q180.80-10.47 180.51-11.04Q180.23-11.61 180.19-11.66L180.19-11.66Q179.85-10.98 179.45-10.18Q179.04-9.38 178.70-8.69Q178.37-8.01 178.09-7.44Q177.81-6.87 177.64-6.50Q177.46-6.13 177.44-6.11L177.44-6.11Q177.31-5.82 177.07-5.82ZM204.90-20.36L204.90-20.36Q206.31-20.36 206.31-19.40L206.31-19.40Q206.31-18.88 206.07-18.64Q205.83-18.40 205.04-17.03Q204.25-15.67 203.30-13.54Q202.34-11.42 202.06-9.92L202.06-9.92Q202.01-9.73 202.01-9.40L202.01-9.40Q202.01-8.38 202.56-8.38Q203.12-8.38 203.88-8.91Q204.64-9.44 205.24-10.04Q205.83-10.64 206.40-11.27Q206.96-11.90 207.07-12.00Q207.19-12.09 207.41-12.09L207.41-12.09Q207.76-12.09 207.83-11.55Q207.91-11.01 207.91-10.44Q207.91-9.86 207.80-9.64L207.80-9.64Q207.26-8.58 205.43-7.10Q203.60-5.61 202.11-5.61Q200.62-5.61 199.91-6.52Q199.21-7.43 199.21-8.54Q199.21-9.64 199.58-10.47L199.58-10.47Q198.04-8.47 196.04-7.08Q194.05-5.69 192.79-5.69Q191.52-5.69 190.73-6.45L190.73-6.45Q189.71-7.39 189.71-9.07Q189.71-10.75 190.46-12.45Q191.21-14.15 192.43-15.55Q193.66-16.95 195.12-18.10L195.12-18.10Q198.20-20.51 200.80-20.51L200.80-20.51Q201.80-20.51 202.44-20.18Q203.07-19.84 203.23-19.34L203.23-19.34Q203.68-20.01 203.98-20.19Q204.29-20.36 204.90-20.36ZM202.44-18.30L202.44-18.30Q199.26-18.30 195.87-14.78L195.87-14.78Q194.66-13.52 193.65-11.75Q192.64-9.99 192.64-9.34Q192.64-8.69 193.01-8.69L193.01-8.69Q193.53-8.69 195.90-10.74Q198.28-12.79 199.06-13.76L199.06-13.76Q199.91-14.83 202.44-18.30Z"></path></g></g></svg>